<svg width="36" height="36" viewBox="0 0 36 36" fill="none" xmlns="http://www.w3.org/2000/svg">
<path fill-rule="evenodd" clip-rule="evenodd" d="M22.8726 9.5275C23.2101 9.86505 23.3996 10.3228 23.3996 10.8001C23.3996 11.2774 23.2101 11.7352 22.8726 12.0727L16.9452 18.0001L22.8726 23.9275C23.2005 24.267 23.3819 24.7217 23.3778 25.1936C23.3737 25.6656 23.1844 26.117 22.8507 26.4508C22.5169 26.7845 22.0655 26.9738 21.5935 26.9779C21.1216 26.982 20.6669 26.8006 20.3274 26.4727L13.1274 19.2727C12.79 18.9352 12.6004 18.4774 12.6004 18.0001C12.6004 17.5228 12.79 17.0651 13.1274 16.7275L20.3274 9.5275C20.665 9.19006 21.1227 9.00049 21.6 9.00049C22.0773 9.00049 22.5351 9.19006 22.8726 9.5275Z" fill="#9B9B9B"/>
</svg>
