<svg width="36" height="36" viewBox="0 0 36 36" fill="none" xmlns="http://www.w3.org/2000/svg">
<path fill-rule="evenodd" clip-rule="evenodd" d="M13.1274 26.4727C12.79 26.1351 12.6004 25.6774 12.6004 25.2001C12.6004 24.7228 12.79 24.265 13.1274 23.9275L19.0548 18.0001L13.1274 12.0727C12.7995 11.7332 12.6181 11.2785 12.6222 10.8066C12.6263 10.3346 12.8156 9.88316 13.1493 9.54943C13.4831 9.21569 13.9345 9.02639 14.4065 9.02228C14.8785 9.01818 15.3331 9.19961 15.6726 9.5275L22.8726 16.7275C23.2101 17.065 23.3996 17.5228 23.3996 18.0001C23.3996 18.4774 23.2101 18.9351 22.8726 19.2727L15.6726 26.4727C15.3351 26.8101 14.8773 26.9997 14.4 26.9997C13.9227 26.9997 13.465 26.8101 13.1274 26.4727Z" fill="#FC2B8E"/>
</svg>
