<svg width="117" height="127" viewBox="0 0 117 127" fill="none" xmlns="http://www.w3.org/2000/svg">
<g clip-path="url(#clip0_467_91)">
<path d="M33.9233 105.102C34.1636 93.891 34.4763 82.6945 34.7427 71.4849L35.0919 55.8049L35.2538 49.0803L35.3786 44.6069C36.112 42.3372 37.5224 41.5169 39.5895 42.2285C44.0313 41.5151 50.2878 43.0362 54.7422 43.4997C60.2042 44.0824 65.6546 44.7794 71.0745 45.6472C76.0196 46.4049 81.0703 47.3305 86.0153 48.3704C91.1948 49.4235 96.4493 51.2858 101.835 51.2734C104.916 51.2471 106.295 46.7656 103.393 45.2805C98.1031 42.564 91.5394 41.9563 85.7156 40.9247C79.652 39.8501 73.5561 38.9183 67.4277 38.1293C61.2994 37.3403 55.2467 36.6932 49.2698 36.1881C44.4244 35.7968 37.9813 34.2495 33.2755 35.9415C29.2532 37.379 28.9522 40.891 28.8508 44.6652C28.6687 51.3782 28.627 58.1042 28.6533 64.8289C28.706 78.2782 29.1901 91.6784 29.9377 105.135C29.9701 105.644 30.1963 106.122 30.5698 106.47C30.9434 106.817 31.4359 107.009 31.9462 107.004C32.4565 107 32.9458 106.801 33.3135 106.447C33.6812 106.093 33.8994 105.612 33.9233 105.102V105.102Z" fill="#FC2B8E"/>
<path d="M83.6125 65.9013C91.307 58.631 99.1936 52.6 108.947 48.3359C109.435 48.052 109.852 47.6607 110.166 47.1915C110.48 46.7223 110.682 46.1877 110.758 45.6284C110.835 45.0691 110.782 44.4998 110.605 43.9638C110.428 43.4278 110.131 42.9392 109.737 42.5352C100.045 34.3026 90.6973 25.7025 81.318 17.111C77.7188 13.8826 72.5601 18.9997 76.0232 22.325C85.1316 31.1785 94.7586 39.5485 104.522 47.7276L105.301 41.9211C95.2234 46.7526 86.1073 53.6401 79.8481 63.0088C78.3126 65.3173 81.708 67.703 83.5821 65.8839L83.6125 65.9013Z" fill="#FC2B8E"/>
</g>
<defs>
<clipPath id="clip0_467_91">
<rect width="102.969" height="73.9295" fill="white" transform="translate(0.815796 89.5681) rotate(-60.2328)"/>
</clipPath>
</defs>
</svg>
