<svg width="252" height="270" viewBox="0 0 252 270" fill="none" xmlns="http://www.w3.org/2000/svg">
<g clip-path="url(#clip0_467_96)">
<path d="M8.78755 89.1153C17.8139 113.57 40.4585 133.959 63.7294 144.675C85.9939 154.937 118.79 160.514 137.62 140.448C144.469 133.147 146.923 121.793 137.487 115.5C128.719 109.659 117.718 113.119 112.481 121.914C98.3756 145.654 127.539 170.798 146.929 179.346C159.246 184.77 172.666 187.219 186.105 186.497C198.527 185.8 213.065 182.717 222.789 174.539C224.179 173.367 222.557 170.803 220.891 171.47C212.01 175.06 203.864 179.17 194.283 180.777C184.306 182.38 174.116 182.091 164.246 179.927C144.737 175.72 122.219 162.962 115.095 143.163C111.267 132.702 115.822 113.979 130.416 117.119C136.348 118.395 140.868 123.497 139.242 129.734C137.754 135.422 132.635 140.077 127.836 143.044C108.402 155.311 81.6968 149.384 62.3854 140.012C51.4572 134.696 41.4822 127.612 32.8632 119.045C23.638 109.894 17.1972 99.3964 10.8365 88.1987C10.6867 87.976 10.4631 87.8133 10.2051 87.7394C9.94708 87.6654 9.67124 87.685 9.42623 87.7946C9.18123 87.9042 8.98279 88.0968 8.86594 88.3384C8.74909 88.58 8.72132 88.8551 8.78755 89.1153V89.1153Z" fill="#FC2B8E"/>
<path d="M6.065 82.5263C9.44588 111.31 30.4824 135.009 56.8655 145.678C69.6215 150.713 83.1717 153.437 96.8824 153.724C110.883 154.102 126.891 153.315 139.425 146.566C148.177 141.855 159.121 128.993 150.533 119.173C142.975 110.531 126.312 109.045 116.848 114.971C106.27 121.625 105.135 135.981 109.838 146.501C115.48 159.107 127.946 168.419 139.775 174.859C165.68 188.965 197.782 191.091 225.106 179.865C227.71 178.793 226.505 174.557 223.863 175.628C203.947 183.552 181.971 184.671 161.354 178.811C150.792 175.852 140.834 171.053 131.939 164.636C121.805 157.273 110.897 146.798 111.306 133.291C111.784 118.378 126.127 112.976 138.915 117.02C146.379 119.376 151.874 124.639 148.001 132.828C144.846 139.484 137.65 143.533 130.941 145.717C109.419 152.767 82.4188 150.815 61.3956 143.127C34.9262 133.513 12.7835 111.061 8.97417 82.4545C8.73592 80.6119 5.83712 80.6397 6.065 82.5263Z" fill="#FC2B8E"/>
<path d="M196.997 169.4C202.548 171.374 208.44 172.524 214.135 173.983L222.214 176.059C223.462 176.376 230.187 177.274 230.594 178.499C230.8 179.135 225.612 183.882 224.981 184.56L219.368 190.622C215.718 194.556 210.528 198.59 208.396 203.663C208.21 204.04 208.15 204.467 208.225 204.881C208.3 205.294 208.506 205.673 208.813 205.96C209.12 206.248 209.511 206.429 209.929 206.477C210.346 206.525 210.769 206.437 211.132 206.226C214.385 204.503 216.551 201.449 219.022 198.745C221.802 195.699 224.584 192.649 227.367 189.593C229.93 186.756 237.27 181.442 235.895 176.81C234.589 172.412 225.799 172.465 222.221 171.637C214.156 169.766 205.984 167.297 197.784 166.16C197.356 166.066 196.908 166.145 196.537 166.379C196.166 166.612 195.902 166.982 195.801 167.409C195.701 167.836 195.772 168.285 195.999 168.659C196.227 169.034 196.592 169.305 197.017 169.412L196.997 169.4Z" fill="#FC2B8E"/>
<path d="M197.078 170.989C203.333 171.915 209.97 171.153 216.296 171.345C223.662 171.478 231.007 172.143 238.277 173.335L236.943 169.154C232.392 174.283 227.633 179.216 222.611 183.885C217.726 188.433 211.294 192.198 207.195 197.41C206.003 198.923 207.215 201.915 209.434 201.031C215.291 198.662 220.493 193.13 225.082 188.853C230.595 183.757 235.788 178.326 240.633 172.592C240.953 172.22 241.161 171.765 241.231 171.28C241.301 170.794 241.231 170.299 241.03 169.852C240.828 169.404 240.503 169.024 240.093 168.755C239.683 168.487 239.204 168.341 238.714 168.334C231.499 167.94 224.316 167.313 217.078 167.245C210.566 167.179 203.258 166.755 196.954 168.5C195.761 168.838 195.705 170.812 196.996 170.977L197.078 170.989Z" fill="#FC2B8E"/>
<path d="M192.115 173.244C208.481 173.4 224.807 173.492 241.133 173.847L239.211 169.604C234.662 175.808 230.089 181.953 225.112 187.808C220.501 193.163 214.596 198.065 210.898 204.106C209.716 206.001 212.22 208.107 213.953 207.023C220.164 203.183 225.06 196.326 229.675 190.756C234.543 184.948 239.086 178.876 243.283 172.567C244.355 170.941 242.747 168.806 240.988 168.855C224.666 169.236 208.355 169.473 192.025 169.759C189.772 169.8 189.877 173.227 192.115 173.244Z" fill="#FC2B8E"/>
</g>
<defs>
<clipPath id="clip0_467_96">
<rect width="215.934" height="162.36" fill="white" transform="translate(138.093) rotate(58.27)"/>
</clipPath>
</defs>
</svg>
