<svg width="323" height="328" viewBox="0 0 323 328" fill="none" xmlns="http://www.w3.org/2000/svg">
<g clip-path="url(#clip0_467_23)">
<path d="M14.3987 86.4826C66.6356 49.8327 139.71 55.4304 195.606 80.8522C223.177 93.3827 248.816 114.736 254.189 146.066C256.435 159.65 254.758 174.084 247.02 185.782C242.369 192.884 234.923 199.874 225.774 198.592C211.863 196.651 213.44 180.826 223.313 174.546C241.824 163.027 262.443 187.921 270.93 201.38C280.825 217.174 286.354 235.139 290.506 253.177C291.692 258.321 299.525 255.701 298.304 250.591C293.208 229.024 285.914 207.372 272.339 189.544C262.488 176.606 247.705 162.975 230.14 164.529C217.357 165.718 205.106 178.392 207.739 191.781C210.519 205.889 227.46 209.672 238.927 204.039C271.194 188.545 266.475 141.064 250.903 115.92C229.247 80.9501 184.334 65.1305 145.839 58.0989C99.9717 49.8963 50.638 55.0934 12.341 83.4132C10.5344 84.7809 12.4496 87.8976 14.3987 86.4826Z" fill="#FC2B8E"/>
<path d="M260.078 231.966C266.89 226.746 282.744 248.993 285.656 252.458C288.135 255.433 291.019 259.019 295.493 257.309C299.966 255.6 300.947 247.861 302.073 243.826C304.849 233.865 307.957 224.019 310.258 213.989C311.392 209.093 304.257 207.82 302.771 212.404C300.188 220.358 298.127 228.522 295.903 236.605C295.406 238.375 294.028 247.986 291.877 248.247C290.193 246.374 288.654 244.376 287.273 242.271C281.374 235.525 269.573 224.138 259.659 225.866C259.056 225.919 258.485 226.158 258.023 226.55C257.562 226.941 257.234 227.467 257.085 228.054L256.642 229.647C256.514 230.083 256.528 230.548 256.682 230.976C256.836 231.403 257.121 231.771 257.497 232.026C257.873 232.28 258.321 232.409 258.775 232.394C259.229 232.378 259.666 232.219 260.023 231.939L260.078 231.966Z" fill="#FC2B8E"/>
<path d="M8.7978 80.2262C8.05167 80.538 7.40887 81.0544 6.94348 81.7157C6.4781 82.377 6.20908 83.1564 6.16746 83.964C6.12583 84.7716 6.31328 85.5745 6.7082 86.2802C7.10312 86.9859 7.68943 87.5656 8.39954 87.9525C8.71253 88.1119 9.06241 88.1849 9.41305 88.164C9.76369 88.1431 10.1024 88.0289 10.3942 87.8334C11.6622 86.9041 12.6435 85.6371 13.2263 84.177C13.809 82.7169 13.9697 81.1225 13.69 79.5755C13.6507 79.0986 13.4621 78.6462 13.1508 78.2828C12.8395 77.9193 12.4215 77.6634 11.9563 77.5513C5.65507 76.8838 3.37153 84.1731 3.75047 89.3362C3.71941 90.6359 4.06269 91.917 4.7394 93.027C5.41612 94.137 6.39772 95.029 7.56723 95.5967C10.6249 96.8428 13.3416 94.7438 14.8447 92.1885C17.5177 87.5727 18.4938 79.0671 12.0862 76.9206C5.67858 74.774 2.02384 82.6311 2.82353 87.6999C2.9699 88.9833 3.40413 90.2171 4.09383 91.3093C4.78354 92.4015 5.71092 93.3239 6.80682 94.0077C7.90271 94.6915 9.13885 95.119 10.423 95.2585C11.7072 95.3979 13.0063 95.2456 14.2234 94.813C19.0292 92.9478 21.7314 86.9888 17.9047 82.8109C17.0041 81.7605 15.8292 80.981 14.5112 80.5595C13.1932 80.138 11.784 80.0911 10.441 80.424C9.09789 80.757 7.87377 81.4566 6.90525 82.4449C5.93674 83.4332 5.26194 84.6712 4.9562 86.0207C4.67789 87.2992 4.7235 88.627 5.08889 89.8834C5.45429 91.1398 6.12787 92.2849 7.04843 93.2148C7.52345 93.7583 8.11992 94.1821 8.78944 94.4519C9.45896 94.7216 10.1827 94.8297 10.9018 94.7673C11.6209 94.705 12.3152 94.4739 12.9283 94.0929C13.5413 93.7119 14.0559 93.1917 14.4303 92.5746C15.3436 90.7734 16.089 88.892 16.6571 86.9541C17.3798 85.41 17.5961 83.677 17.275 82.0027C16.8936 80.7754 16.1029 79.7158 15.035 79.0007C13.967 78.2856 12.6862 77.9581 11.4061 78.0728C10.0111 78.118 8.65943 78.5684 7.51617 79.369C6.37292 80.1696 5.48753 81.2858 4.96813 82.5813C3.64679 86.0933 4.89627 89.7925 6.29565 93.0576C6.72112 94.3404 8.30015 95.4214 9.71218 94.7723C11.122 94.177 12.3993 93.3074 13.4698 92.2139C14.5404 91.1204 15.3828 89.8249 15.948 88.4028C16.5133 86.9807 16.7901 85.4604 16.7623 83.9304C16.7346 82.4003 16.4028 80.8911 15.7863 79.4904C15.2047 78.282 13.8158 77.0928 12.3223 77.7689C11.081 78.3182 10.013 79.1956 9.23306 80.3066C8.45316 81.4176 7.99093 82.7202 7.89611 84.0743C7.80128 85.4285 8.07745 86.7828 8.6949 87.9917C9.31234 89.2005 10.2477 90.2182 11.4003 90.9351C14.2942 92.8457 16.8524 87.8837 13.8635 86.0273C13.6707 85.8157 13.5223 85.5677 13.4268 85.2978C13.3314 85.028 13.2909 84.7418 13.3078 84.4561C13.3246 84.1704 13.3985 83.8909 13.525 83.6342C13.6515 83.3774 13.8281 83.1486 14.0445 82.9612L10.5737 81.2193C10.9676 81.9385 11.2138 82.7292 11.298 83.5449C11.3821 84.3606 11.3024 85.1849 11.0637 85.9694C10.8249 86.7539 10.4318 87.4828 9.90746 88.1133C9.38313 88.7439 8.73813 89.2633 8.01032 89.6411L11.4269 91.3558C10.6561 89.5772 8.15373 84.4855 11.0723 83.4723C12.233 83.0874 12.1445 83.2975 12.0482 84.1657C11.6003 86.0108 10.9326 87.7954 10.0593 89.4814C9.80085 89.9287 9.95013 89.9018 10.4462 89.353C10.2449 89.1462 10.1106 88.8837 10.0606 88.5994C10.0685 87.8736 9.78445 87.2897 10.1112 86.5711C10.2489 86.2789 10.4508 86.0216 10.7018 85.8183C10.9529 85.615 11.2466 85.4711 11.5611 85.3972C11.8756 85.3233 12.2027 85.3214 12.518 85.3916C12.8333 85.4618 13.1287 85.6023 13.3822 85.8027C15.7272 87.2851 13.9192 89.6025 11.9917 90.1966C9.46002 91.0136 7.80843 88.5554 7.71038 86.0791C7.67444 85.3848 7.77833 84.6903 8.01587 84.0369C8.25341 83.3835 8.61978 82.7845 9.09322 82.2754C10.4587 81.0088 11.5764 82.1299 11.8048 83.6362C11.9248 85.2996 11.6041 86.9652 10.8749 88.465C10.3914 89.665 9.1193 92.0307 8.5869 89.6759C8.0545 87.3211 8.54467 81.6436 11.6175 81.845L9.415 80.3153C9.60215 81.1491 9.55058 82.0188 9.26621 82.8247C8.98184 83.6305 8.47617 84.34 7.80717 84.8717L10.1822 84.4004C9.70748 84.3318 9.61968 84.0671 9.92562 83.6266C10.3292 83.4418 10.6504 83.1145 10.8276 82.7074C11.0048 82.3004 11.0255 81.8423 10.8858 81.4209C10.746 80.9996 10.4556 80.6446 10.0703 80.4241C9.68502 80.2037 9.23188 80.1332 8.7978 80.2262V80.2262Z" fill="#FC2B8E"/>
</g>
<defs>
<clipPath id="clip0_467_23">
<rect width="252.841" height="261.701" fill="white" transform="translate(0 79.5957) rotate(-18.3491)"/>
</clipPath>
</defs>
</svg>
