<svg width="151" height="34" viewBox="0 0 151 34" fill="none" xmlns="http://www.w3.org/2000/svg">
<rect width="151" height="34" rx="8" fill="#FFEAF4"/>
<path d="M34.966 12.004V22H37.164V17.87H41.35V16.162H37.164V13.852H41.994V12.004H34.966ZM42.9708 16.988C42.9988 16.5213 43.1155 16.134 43.3208 15.826C43.5262 15.518 43.7875 15.2707 44.1048 15.084C44.4222 14.8973 44.7768 14.7667 45.1688 14.692C45.5702 14.608 45.9715 14.566 46.3728 14.566C46.7368 14.566 47.1055 14.594 47.4788 14.65C47.8522 14.6967 48.1928 14.7947 48.5008 14.944C48.8088 15.0933 49.0608 15.3033 49.2568 15.574C49.4528 15.8353 49.5508 16.1853 49.5508 16.624V20.39C49.5508 20.7167 49.5695 21.0293 49.6068 21.328C49.6442 21.6267 49.7095 21.8507 49.8028 22H47.7868C47.7495 21.888 47.7168 21.776 47.6888 21.664C47.6702 21.5427 47.6562 21.4213 47.6468 21.3C47.3295 21.6267 46.9562 21.8553 46.5268 21.986C46.0975 22.1167 45.6588 22.182 45.2108 22.182C44.8655 22.182 44.5435 22.14 44.2448 22.056C43.9462 21.972 43.6848 21.8413 43.4608 21.664C43.2368 21.4867 43.0595 21.2627 42.9288 20.992C42.8075 20.7213 42.7468 20.3993 42.7468 20.026C42.7468 19.6153 42.8168 19.2793 42.9568 19.018C43.1062 18.7473 43.2928 18.5327 43.5168 18.374C43.7502 18.2153 44.0115 18.0987 44.3008 18.024C44.5995 17.94 44.8982 17.8747 45.1968 17.828C45.4955 17.7813 45.7895 17.744 46.0788 17.716C46.3682 17.688 46.6248 17.646 46.8488 17.59C47.0728 17.534 47.2502 17.4547 47.3808 17.352C47.5115 17.24 47.5722 17.0813 47.5628 16.876C47.5628 16.6613 47.5255 16.4933 47.4508 16.372C47.3855 16.2413 47.2922 16.1433 47.1708 16.078C47.0588 16.0033 46.9235 15.9567 46.7648 15.938C46.6155 15.91 46.4522 15.896 46.2748 15.896C45.8828 15.896 45.5748 15.98 45.3508 16.148C45.1268 16.316 44.9962 16.596 44.9588 16.988H42.9708ZM47.5628 18.458C47.4788 18.5327 47.3715 18.5933 47.2408 18.64C47.1195 18.6773 46.9842 18.71 46.8348 18.738C46.6948 18.766 46.5455 18.7893 46.3868 18.808C46.2282 18.8267 46.0695 18.85 45.9108 18.878C45.7615 18.906 45.6122 18.9433 45.4628 18.99C45.3228 19.0367 45.1968 19.102 45.0848 19.186C44.9822 19.2607 44.8982 19.3587 44.8328 19.48C44.7675 19.6013 44.7348 19.7553 44.7348 19.942C44.7348 20.1193 44.7675 20.2687 44.8328 20.39C44.8982 20.5113 44.9868 20.6093 45.0988 20.684C45.2108 20.7493 45.3415 20.796 45.4908 20.824C45.6402 20.852 45.7942 20.866 45.9528 20.866C46.3448 20.866 46.6482 20.8007 46.8628 20.67C47.0775 20.5393 47.2362 20.3853 47.3388 20.208C47.4415 20.0213 47.5022 19.8347 47.5208 19.648C47.5488 19.4613 47.5628 19.312 47.5628 19.2V18.458ZM55.0979 22L57.5479 14.762H55.5739L54.0479 19.704H54.0199L52.4939 14.762H50.4079L52.8859 22H55.0979ZM60.1313 18.388C60.1313 18.0987 60.1593 17.814 60.2153 17.534C60.2713 17.254 60.3647 17.0067 60.4953 16.792C60.6353 16.5773 60.8173 16.4047 61.0413 16.274C61.2653 16.134 61.5453 16.064 61.8813 16.064C62.2173 16.064 62.4973 16.134 62.7213 16.274C62.9547 16.4047 63.1367 16.5773 63.2673 16.792C63.4073 17.0067 63.5053 17.254 63.5613 17.534C63.6173 17.814 63.6453 18.0987 63.6453 18.388C63.6453 18.6773 63.6173 18.962 63.5613 19.242C63.5053 19.5127 63.4073 19.76 63.2673 19.984C63.1367 20.1987 62.9547 20.3713 62.7213 20.502C62.4973 20.6327 62.2173 20.698 61.8813 20.698C61.5453 20.698 61.2653 20.6327 61.0413 20.502C60.8173 20.3713 60.6353 20.1987 60.4953 19.984C60.3647 19.76 60.2713 19.5127 60.2153 19.242C60.1593 18.962 60.1313 18.6773 60.1313 18.388ZM58.1433 18.388C58.1433 18.9667 58.232 19.4893 58.4093 19.956C58.5867 20.4227 58.8387 20.824 59.1653 21.16C59.492 21.4867 59.884 21.7387 60.3413 21.916C60.7987 22.0933 61.312 22.182 61.8813 22.182C62.4507 22.182 62.964 22.0933 63.4213 21.916C63.888 21.7387 64.2847 21.4867 64.6113 21.16C64.938 20.824 65.19 20.4227 65.3673 19.956C65.5447 19.4893 65.6333 18.9667 65.6333 18.388C65.6333 17.8093 65.5447 17.2867 65.3673 16.82C65.19 16.344 64.938 15.9427 64.6113 15.616C64.2847 15.28 63.888 15.0233 63.4213 14.846C62.964 14.6593 62.4507 14.566 61.8813 14.566C61.312 14.566 60.7987 14.6593 60.3413 14.846C59.884 15.0233 59.492 15.28 59.1653 15.616C58.8387 15.9427 58.5867 16.344 58.4093 16.82C58.232 17.2867 58.1433 17.8093 58.1433 18.388ZM66.9259 14.762V22H68.9139V18.738C68.9139 18.4113 68.9466 18.108 69.0119 17.828C69.0773 17.548 69.1846 17.3053 69.3339 17.1C69.4926 16.8853 69.6979 16.7173 69.9499 16.596C70.2019 16.4747 70.5099 16.414 70.8739 16.414C70.9953 16.414 71.1213 16.4233 71.2519 16.442C71.3826 16.4513 71.4946 16.4653 71.5879 16.484V14.636C71.4293 14.5893 71.2846 14.566 71.1539 14.566C70.9019 14.566 70.6593 14.6033 70.4259 14.678C70.1926 14.7527 69.9733 14.86 69.7679 15C69.5626 15.1307 69.3806 15.294 69.2219 15.49C69.0633 15.6767 68.9373 15.882 68.8439 16.106H68.8159V14.762H66.9259ZM74.4113 13.642V12.004H72.4233V13.642H74.4113ZM72.4233 14.762V22H74.4113V14.762H72.4233ZM78.4967 14.762V12.592H76.5087V14.762H75.3047V16.092H76.5087V20.362C76.5087 20.726 76.5694 21.02 76.6907 21.244C76.812 21.468 76.9754 21.6407 77.1807 21.762C77.3954 21.8833 77.638 21.9627 77.9087 22C78.1887 22.0467 78.4827 22.07 78.7907 22.07C78.9867 22.07 79.1874 22.0653 79.3927 22.056C79.598 22.0467 79.7847 22.028 79.9527 22V20.46C79.8594 20.4787 79.7614 20.4927 79.6587 20.502C79.556 20.5113 79.4487 20.516 79.3367 20.516C79.0007 20.516 78.7767 20.46 78.6647 20.348C78.5527 20.236 78.4967 20.012 78.4967 19.676V16.092H79.9527V14.762H78.4967ZM85.7706 17.604H82.5366C82.5459 17.464 82.5739 17.3053 82.6206 17.128C82.6766 16.9507 82.7652 16.7827 82.8866 16.624C83.0172 16.4653 83.1852 16.3347 83.3906 16.232C83.6052 16.12 83.8712 16.064 84.1886 16.064C84.6739 16.064 85.0332 16.1947 85.2666 16.456C85.5092 16.7173 85.6772 17.1 85.7706 17.604ZM82.5366 18.864H87.7586C87.7959 18.304 87.7492 17.7673 87.6186 17.254C87.4879 16.7407 87.2732 16.2833 86.9746 15.882C86.6852 15.4807 86.3119 15.1633 85.8546 14.93C85.3972 14.6873 84.8606 14.566 84.2446 14.566C83.6939 14.566 83.1899 14.664 82.7326 14.86C82.2846 15.056 81.8972 15.3267 81.5706 15.672C81.2439 16.008 80.9919 16.4093 80.8146 16.876C80.6372 17.3427 80.5486 17.8467 80.5486 18.388C80.5486 18.948 80.6326 19.4613 80.8006 19.928C80.9779 20.3947 81.2252 20.796 81.5426 21.132C81.8599 21.468 82.2472 21.7293 82.7046 21.916C83.1619 22.0933 83.6752 22.182 84.2446 22.182C85.0659 22.182 85.7659 21.9953 86.3446 21.622C86.9232 21.2487 87.3526 20.628 87.6326 19.76H85.8826C85.8172 19.984 85.6399 20.1987 85.3506 20.404C85.0612 20.6 84.7159 20.698 84.3146 20.698C83.7546 20.698 83.3252 20.5533 83.0266 20.264C82.7279 19.9747 82.5646 19.508 82.5366 18.864ZM99.7081 15.364H101.836C101.771 14.7853 101.612 14.272 101.36 13.824C101.108 13.376 100.786 13.0027 100.394 12.704C100.011 12.396 99.5728 12.1627 99.0781 12.004C98.5928 11.8453 98.0748 11.766 97.5241 11.766C96.7588 11.766 96.0681 11.9013 95.4521 12.172C94.8455 12.4427 94.3321 12.816 93.9121 13.292C93.4921 13.768 93.1701 14.328 92.9461 14.972C92.7221 15.6067 92.6101 16.2973 92.6101 17.044C92.6101 17.772 92.7221 18.4533 92.9461 19.088C93.1701 19.7133 93.4921 20.2593 93.9121 20.726C94.3321 21.1927 94.8455 21.5613 95.4521 21.832C96.0681 22.0933 96.7588 22.224 97.5241 22.224C98.1401 22.224 98.7048 22.1307 99.2181 21.944C99.7315 21.7573 100.179 21.4867 100.562 21.132C100.945 20.7773 101.253 20.348 101.486 19.844C101.719 19.34 101.864 18.7753 101.92 18.15H99.7921C99.7081 18.822 99.4748 19.3633 99.0921 19.774C98.7188 20.1847 98.1961 20.39 97.5241 20.39C97.0295 20.39 96.6095 20.2967 96.2641 20.11C95.9188 19.914 95.6388 19.6573 95.4241 19.34C95.2095 19.0227 95.0508 18.668 94.9481 18.276C94.8548 17.8747 94.8081 17.464 94.8081 17.044C94.8081 16.6053 94.8548 16.1807 94.9481 15.77C95.0508 15.3593 95.2095 14.9953 95.4241 14.678C95.6388 14.3513 95.9188 14.0947 96.2641 13.908C96.6095 13.712 97.0295 13.614 97.5241 13.614C97.7948 13.614 98.0515 13.6607 98.2941 13.754C98.5461 13.838 98.7701 13.9593 98.9661 14.118C99.1621 14.2767 99.3255 14.4633 99.4561 14.678C99.5868 14.8833 99.6708 15.112 99.7081 15.364ZM103.211 12.004V22H105.199V18.206C105.199 17.4687 105.32 16.9413 105.563 16.624C105.806 16.2973 106.198 16.134 106.739 16.134C107.215 16.134 107.546 16.2833 107.733 16.582C107.92 16.8713 108.013 17.3147 108.013 17.912V22H110.001V17.548C110.001 17.1 109.959 16.694 109.875 16.33C109.8 15.9567 109.665 15.644 109.469 15.392C109.273 15.1307 109.002 14.93 108.657 14.79C108.321 14.6407 107.887 14.566 107.355 14.566C106.982 14.566 106.599 14.664 106.207 14.86C105.815 15.0467 105.493 15.35 105.241 15.77H105.199V12.004H103.211ZM113.274 18.388C113.274 18.0987 113.302 17.814 113.358 17.534C113.414 17.254 113.507 17.0067 113.638 16.792C113.778 16.5773 113.96 16.4047 114.184 16.274C114.408 16.134 114.688 16.064 115.024 16.064C115.36 16.064 115.64 16.134 115.864 16.274C116.097 16.4047 116.279 16.5773 116.41 16.792C116.55 17.0067 116.648 17.254 116.704 17.534C116.76 17.814 116.788 18.0987 116.788 18.388C116.788 18.6773 116.76 18.962 116.704 19.242C116.648 19.5127 116.55 19.76 116.41 19.984C116.279 20.1987 116.097 20.3713 115.864 20.502C115.64 20.6327 115.36 20.698 115.024 20.698C114.688 20.698 114.408 20.6327 114.184 20.502C113.96 20.3713 113.778 20.1987 113.638 19.984C113.507 19.76 113.414 19.5127 113.358 19.242C113.302 18.962 113.274 18.6773 113.274 18.388ZM111.286 18.388C111.286 18.9667 111.375 19.4893 111.552 19.956C111.729 20.4227 111.981 20.824 112.308 21.16C112.635 21.4867 113.027 21.7387 113.484 21.916C113.941 22.0933 114.455 22.182 115.024 22.182C115.593 22.182 116.107 22.0933 116.564 21.916C117.031 21.7387 117.427 21.4867 117.754 21.16C118.081 20.824 118.333 20.4227 118.51 19.956C118.687 19.4893 118.776 18.9667 118.776 18.388C118.776 17.8093 118.687 17.2867 118.51 16.82C118.333 16.344 118.081 15.9427 117.754 15.616C117.427 15.28 117.031 15.0233 116.564 14.846C116.107 14.6593 115.593 14.566 115.024 14.566C114.455 14.566 113.941 14.6593 113.484 14.846C113.027 15.0233 112.635 15.28 112.308 15.616C111.981 15.9427 111.729 16.344 111.552 16.82C111.375 17.2867 111.286 17.8093 111.286 18.388ZM122.113 13.642V12.004H120.125V13.642H122.113ZM120.125 14.762V22H122.113V14.762H120.125ZM128.606 17.31H130.552C130.524 16.8433 130.412 16.442 130.216 16.106C130.02 15.7607 129.763 15.476 129.446 15.252C129.138 15.0187 128.783 14.846 128.382 14.734C127.99 14.622 127.579 14.566 127.15 14.566C126.562 14.566 126.039 14.664 125.582 14.86C125.125 15.056 124.737 15.3313 124.42 15.686C124.103 16.0313 123.86 16.4467 123.692 16.932C123.533 17.408 123.454 17.926 123.454 18.486C123.454 19.0273 123.543 19.5267 123.72 19.984C123.897 20.432 124.145 20.8193 124.462 21.146C124.779 21.4727 125.162 21.7293 125.61 21.916C126.067 22.0933 126.567 22.182 127.108 22.182C128.069 22.182 128.858 21.93 129.474 21.426C130.09 20.922 130.463 20.1893 130.594 19.228H128.676C128.611 19.676 128.447 20.0353 128.186 20.306C127.934 20.5673 127.57 20.698 127.094 20.698C126.786 20.698 126.525 20.628 126.31 20.488C126.095 20.348 125.923 20.1707 125.792 19.956C125.671 19.732 125.582 19.4847 125.526 19.214C125.47 18.9433 125.442 18.6773 125.442 18.416C125.442 18.1453 125.47 17.8747 125.526 17.604C125.582 17.324 125.675 17.072 125.806 16.848C125.946 16.6147 126.123 16.428 126.338 16.288C126.553 16.1387 126.819 16.064 127.136 16.064C127.985 16.064 128.475 16.4793 128.606 17.31ZM136.589 17.604H133.355C133.364 17.464 133.392 17.3053 133.439 17.128C133.495 16.9507 133.584 16.7827 133.705 16.624C133.836 16.4653 134.004 16.3347 134.209 16.232C134.424 16.12 134.69 16.064 135.007 16.064C135.492 16.064 135.852 16.1947 136.085 16.456C136.328 16.7173 136.496 17.1 136.589 17.604ZM133.355 18.864H138.577C138.614 18.304 138.568 17.7673 138.437 17.254C138.306 16.7407 138.092 16.2833 137.793 15.882C137.504 15.4807 137.13 15.1633 136.673 14.93C136.216 14.6873 135.679 14.566 135.063 14.566C134.512 14.566 134.008 14.664 133.551 14.86C133.103 15.056 132.716 15.3267 132.389 15.672C132.062 16.008 131.81 16.4093 131.633 16.876C131.456 17.3427 131.367 17.8467 131.367 18.388C131.367 18.948 131.451 19.4613 131.619 19.928C131.796 20.3947 132.044 20.796 132.361 21.132C132.678 21.468 133.066 21.7293 133.523 21.916C133.98 22.0933 134.494 22.182 135.063 22.182C135.884 22.182 136.584 21.9953 137.163 21.622C137.742 21.2487 138.171 20.628 138.451 19.76H136.701C136.636 19.984 136.458 20.1987 136.169 20.404C135.88 20.6 135.534 20.698 135.133 20.698C134.573 20.698 134.144 20.5533 133.845 20.264C133.546 19.9747 133.383 19.508 133.355 18.864Z" fill="#FC2B8E"/>
<path fill-rule="evenodd" clip-rule="evenodd" d="M15.5 9.79999C15.7917 9.79999 16.0715 9.89481 16.2778 10.0636C16.4841 10.2324 16.6 10.4613 16.6 10.7V11.6H17.7C17.9917 11.6 18.2715 11.6948 18.4778 11.8636C18.6841 12.0324 18.8 12.2613 18.8 12.5C18.8 12.7387 18.6841 12.9676 18.4778 13.1364C18.2715 13.3052 17.9917 13.4 17.7 13.4H16.6V14.3C16.6 14.5387 16.4841 14.7676 16.2778 14.9364C16.0715 15.1052 15.7917 15.2 15.5 15.2C15.2082 15.2 14.9284 15.1052 14.7221 14.9364C14.5158 14.7676 14.4 14.5387 14.4 14.3V13.4H13.3C13.0082 13.4 12.7284 13.3052 12.5221 13.1364C12.3158 12.9676 12.2 12.7387 12.2 12.5C12.2 12.2613 12.3158 12.0324 12.5221 11.8636C12.7284 11.6948 13.0082 11.6 13.3 11.6H14.4V10.7C14.4 10.4613 14.5158 10.2324 14.7221 10.0636C14.9284 9.89481 15.2082 9.79999 15.5 9.79999ZM15.5 18.8C15.7917 18.8 16.0715 18.8948 16.2778 19.0636C16.4841 19.2324 16.6 19.4613 16.6 19.7V20.6H17.7C17.9917 20.6 18.2715 20.6948 18.4778 20.8636C18.6841 21.0324 18.8 21.2613 18.8 21.5C18.8 21.7387 18.6841 21.9676 18.4778 22.1364C18.2715 22.3052 17.9917 22.4 17.7 22.4H16.6V23.3C16.6 23.5387 16.4841 23.7676 16.2778 23.9364C16.0715 24.1052 15.7917 24.2 15.5 24.2C15.2082 24.2 14.9284 24.1052 14.7221 23.9364C14.5158 23.7676 14.4 23.5387 14.4 23.3V22.4H13.3C13.0082 22.4 12.7284 22.3052 12.5221 22.1364C12.3158 21.9676 12.2 21.7387 12.2 21.5C12.2 21.2613 12.3158 21.0324 12.5221 20.8636C12.7284 20.6948 13.0082 20.6 13.3 20.6H14.4V19.7C14.4 19.4613 14.5158 19.2324 14.7221 19.0636C14.9284 18.8948 15.2082 18.8 15.5 18.8ZM23.2 9.79999C23.4427 9.79992 23.6787 9.86556 23.8711 9.98668C24.0635 10.1078 24.2015 10.2776 24.2637 10.4696L25.5606 14.48L29.25 16.2206C29.4172 16.2996 29.556 16.4132 29.6525 16.55C29.7491 16.6868 29.7999 16.842 29.7999 17C29.7999 17.158 29.7491 17.3132 29.6525 17.45C29.556 17.5868 29.4172 17.7004 29.25 17.7794L25.5606 19.5209L24.2626 23.5304C24.2003 23.7222 24.0623 23.8918 23.87 24.0128C23.6777 24.1338 23.442 24.1994 23.1994 24.1994C22.9568 24.1994 22.7211 24.1338 22.5288 24.0128C22.3365 23.8918 22.1985 23.7222 22.1363 23.5304L20.8394 19.52L17.15 17.7794C16.9827 17.7004 16.8439 17.5868 16.7474 17.45C16.6508 17.3132 16.6 17.158 16.6 17C16.6 16.842 16.6508 16.6868 16.7474 16.55C16.8439 16.4132 16.9827 16.2996 17.15 16.2206L20.8394 14.4791L22.1374 10.4696C22.1994 10.2777 22.3373 10.1081 22.5295 9.98696C22.7217 9.86585 22.9574 9.80012 23.2 9.79999V9.79999Z" fill="#FC2B8E"/>
</svg>
