<svg width="19" height="20" viewBox="0 0 19 20" fill="none" xmlns="http://www.w3.org/2000/svg">
<path fill-rule="evenodd" clip-rule="evenodd" d="M5.64085 0.888252C6.64219 0.843252 6.96146 0.833252 9.51219 0.833252C12.0629 0.833252 12.3822 0.844085 13.3827 0.888252C14.3832 0.932419 15.0661 1.08825 15.6637 1.31409C16.2894 1.54492 16.8571 1.90575 17.3266 2.37242C17.8046 2.82992 18.1734 3.38325 18.409 3.99492C18.6412 4.57825 18.8 5.24492 18.8461 6.21992C18.8922 7.19908 18.9024 7.51075 18.9024 9.99992C18.9024 12.4899 18.8913 12.8016 18.8461 13.7791C18.8008 14.7541 18.6412 15.4208 18.409 16.0041C18.1734 16.6158 17.804 17.1701 17.3266 17.6283C16.8571 18.0949 16.2894 18.4549 15.6637 18.6849C15.0661 18.9116 14.3832 19.0666 13.3844 19.1116C12.3822 19.1566 12.0629 19.1666 9.51219 19.1666C6.96146 19.1666 6.64219 19.1558 5.64085 19.1116C4.64207 19.0674 3.95914 18.9116 3.36158 18.6849C2.73493 18.4549 2.16716 18.0943 1.6978 17.6283C1.22008 17.1705 0.850388 16.6165 0.614509 16.0049C0.383168 15.4216 0.224387 14.7549 0.17829 13.7799C0.132192 12.8008 0.121948 12.4891 0.121948 9.99992C0.121948 7.50992 0.133046 7.19825 0.17829 6.22158C0.223534 5.24492 0.383168 4.57825 0.614509 3.99492C0.850736 3.38332 1.22071 2.82935 1.69866 2.37159C2.16735 1.90534 2.73455 1.54445 3.36073 1.31409C3.95829 1.08825 4.64122 0.933252 5.64 0.888252H5.64085ZM13.3067 2.53825C12.3165 2.49409 12.0194 2.48492 9.51219 2.48492C7.005 2.48492 6.70792 2.49409 5.71768 2.53825C4.8017 2.57909 4.30487 2.72825 3.97366 2.85408C3.53573 3.02075 3.22244 3.21825 2.89378 3.53909C2.58223 3.83496 2.34247 4.19515 2.19207 4.59325C2.06317 4.91658 1.91036 5.40158 1.86853 6.29575C1.82329 7.26242 1.8139 7.55242 1.8139 9.99992C1.8139 12.4474 1.82329 12.7374 1.86853 13.7041C1.91036 14.5983 2.06317 15.0833 2.19207 15.4066C2.34231 15.8041 2.58219 16.1649 2.89378 16.4608C3.19683 16.7649 3.56646 16.9991 3.97366 17.1458C4.30487 17.2716 4.8017 17.4208 5.71768 17.4616C6.70792 17.5058 7.00414 17.5149 9.51219 17.5149C12.0202 17.5149 12.3165 17.5058 13.3067 17.4616C14.2227 17.4208 14.7195 17.2716 15.0507 17.1458C15.4887 16.9791 15.8019 16.7816 16.1306 16.4608C16.4422 16.1649 16.6821 15.8041 16.8323 15.4066C16.9612 15.0833 17.114 14.5983 17.1558 13.7041C17.2011 12.7374 17.2105 12.4474 17.2105 9.99992C17.2105 7.55242 17.2011 7.26242 17.1558 6.29575C17.114 5.40158 16.9612 4.91658 16.8323 4.59325C16.6616 4.16575 16.4593 3.85992 16.1306 3.53909C15.8275 3.23498 15.4585 3.00093 15.0507 2.85408C14.7195 2.72825 14.2227 2.57909 13.3067 2.53825ZM8.3128 12.8258C8.98263 13.0979 9.72849 13.1347 10.423 12.9297C11.1175 12.7247 11.7175 12.2907 12.1206 11.7018C12.5238 11.1129 12.7049 10.4056 12.6332 9.70084C12.5615 8.99603 12.2413 8.3374 11.7274 7.83742C11.3998 7.51782 11.0037 7.27309 10.5676 7.12087C10.1315 6.96865 9.66622 6.91272 9.2053 6.9571C8.74438 7.00148 8.29927 7.14507 7.90202 7.37753C7.50478 7.60999 7.16527 7.92554 6.90794 8.30146C6.65061 8.67738 6.48187 9.10433 6.41385 9.55155C6.34584 9.99878 6.38025 10.4552 6.5146 10.8878C6.64896 11.3205 6.87992 11.7188 7.19086 12.0539C7.50179 12.3889 7.88497 12.6526 8.3128 12.8258ZM6.09927 6.66825C6.54746 6.23073 7.07954 5.88367 7.66513 5.64689C8.25072 5.4101 8.87835 5.28823 9.51219 5.28823C10.146 5.28823 10.7737 5.4101 11.3593 5.64689C11.9448 5.88367 12.4769 6.23073 12.9251 6.66825C13.3733 7.10577 13.7288 7.62518 13.9714 8.19683C14.214 8.76848 14.3388 9.38117 14.3388 9.99992C14.3388 10.6187 14.214 11.2314 13.9714 11.803C13.7288 12.3747 13.3733 12.8941 12.9251 13.3316C12.02 14.2152 10.7923 14.7116 9.51219 14.7116C8.2321 14.7116 7.00443 14.2152 6.09927 13.3316C5.1941 12.448 4.68558 11.2495 4.68558 9.99992C4.68558 8.7503 5.1941 7.55186 6.09927 6.66825ZM15.4093 5.98992C15.5203 5.88764 15.6092 5.76465 15.6707 5.62823C15.7322 5.49181 15.7651 5.34473 15.7673 5.19569C15.7695 5.04666 15.7411 4.89871 15.6837 4.76059C15.6263 4.62248 15.5411 4.49701 15.4331 4.39162C15.3252 4.28622 15.1966 4.20305 15.0552 4.14702C14.9137 4.09098 14.7621 4.06323 14.6094 4.0654C14.4568 4.06758 14.3061 4.09963 14.1664 4.15967C14.0266 4.2197 13.9006 4.3065 13.7958 4.41492C13.5921 4.62578 13.4805 4.90585 13.4849 5.19569C13.4892 5.48553 13.6091 5.76232 13.819 5.96729C14.029 6.17226 14.3125 6.28928 14.6094 6.2935C14.9064 6.29773 15.1933 6.18883 15.4093 5.98992Z" fill="#FC2B8E"/>
</svg>
