<svg width="19" height="16" viewBox="0 0 19 16" fill="none" xmlns="http://www.w3.org/2000/svg">
<path d="M18.7317 2.41779C18.0533 2.71179 17.3242 2.90979 16.559 2.99904C17.3403 2.54229 17.9404 1.81854 18.2223 0.956035C17.4917 1.37904 16.6819 1.68654 15.8199 1.85229C15.1307 1.13454 14.1465 0.686035 13.0586 0.686035C10.6162 0.686035 8.82151 2.91054 9.37315 5.21979C6.23006 5.06604 3.44269 3.59604 1.57651 1.36179C0.585414 3.02154 1.06252 5.19278 2.74662 6.29228C2.12738 6.27278 1.54347 6.10704 1.0341 5.83029C0.992609 7.54104 2.24877 9.14153 4.06808 9.49778C3.53566 9.63878 2.95252 9.67179 2.3594 9.56079C2.84035 11.0278 4.23711 12.095 5.89355 12.125C4.30318 13.3423 2.29947 13.886 0.292694 13.655C1.9668 14.7028 3.95591 15.314 6.09177 15.314C13.1155 15.314 17.0837 9.52328 16.844 4.32954C17.5831 3.80828 18.2246 3.15804 18.7317 2.41779Z" fill="#FC2B8E"/>
</svg>
